<svg width="36" height="34" viewBox="0 0 36 34" fill="none" xmlns="http://www.w3.org/2000/svg">
<path d="M16.6599 3.08719C17.0843 2.135 17.2965 1.6589 17.592 1.51227C17.8487 1.38491 18.1502 1.38491 18.4069 1.51227C18.7024 1.6589 18.9146 2.135 19.3391 3.08719L22.7198 10.6716C22.8453 10.9531 22.908 11.0938 23.0051 11.2016C23.091 11.297 23.196 11.3732 23.3132 11.4255C23.4458 11.4845 23.599 11.5007 23.9055 11.533L32.1634 12.4046C33.2001 12.514 33.7185 12.5687 33.9492 12.8044C34.1497 13.0092 34.2429 13.2959 34.2011 13.5794C34.1529 13.9058 33.7657 14.2547 32.9913 14.9527L26.8228 20.5116C26.5939 20.7179 26.4794 20.8211 26.4069 20.9467C26.3427 21.0579 26.3026 21.1813 26.2892 21.309C26.274 21.4532 26.306 21.604 26.3699 21.9055L28.0928 30.0285C28.3092 31.0483 28.4173 31.5582 28.2644 31.8505C28.1316 32.1045 27.8877 32.2817 27.6052 32.3295C27.2799 32.3846 26.8284 32.1242 25.9253 31.6033L18.7323 27.4546C18.4653 27.3006 18.3318 27.2236 18.1899 27.1934C18.0644 27.1668 17.9346 27.1668 17.8091 27.1934C17.6672 27.2236 17.5337 27.3006 17.2667 27.4546L10.0736 31.6033C9.17058 32.1242 8.71905 32.3846 8.3938 32.3295C8.11126 32.2817 7.86735 32.1045 7.73455 31.8505C7.58166 31.5582 7.68981 31.0483 7.90612 30.0285L9.62903 21.9055C9.69297 21.604 9.72495 21.4532 9.70976 21.309C9.69632 21.1813 9.65622 21.0579 9.59207 20.9467C9.51956 20.8211 9.40509 20.7179 9.17614 20.5116L3.00768 14.9527C2.23325 14.2547 1.84604 13.9058 1.79791 13.5794C1.75609 13.2959 1.84926 13.0092 2.04972 12.8044C2.28048 12.5687 2.79886 12.514 3.83561 12.4046L12.0935 11.533C12.4 11.5007 12.5532 11.4845 12.6857 11.4255C12.803 11.3732 12.9079 11.297 12.9938 11.2016C13.0909 11.0938 13.1537 10.9531 13.2791 10.6716L16.6599 3.08719Z" fill="#FFBD59" stroke="#FFBD59" stroke-width="2" stroke-linecap="round" stroke-linejoin="round"/>
</svg>
