<svg width="44" height="44" viewBox="0 0 44 44" fill="none" xmlns="http://www.w3.org/2000/svg">
<path d="M20.6599 8.08646C21.0843 7.13426 21.2965 6.65817 21.592 6.51154C21.8487 6.38417 22.1502 6.38417 22.4069 6.51154C22.7024 6.65817 22.9147 7.13427 23.3391 8.08646L26.7198 15.6708C26.8453 15.9523 26.908 16.0931 27.0051 16.2009C27.091 16.2962 27.196 16.3725 27.3132 16.4247C27.4458 16.4837 27.599 16.4999 27.9055 16.5323L36.1634 17.4038C37.2001 17.5133 37.7185 17.568 37.9492 17.8037C38.1497 18.0085 38.2429 18.2952 38.2011 18.5787C38.1529 18.9051 37.7657 19.254 36.9913 19.9519L30.8228 25.5109C30.5939 25.7172 30.4794 25.8204 30.4069 25.946C30.3427 26.0572 30.3026 26.1806 30.2892 26.3082C30.274 26.4525 30.306 26.6032 30.3699 26.9047L32.0928 35.0278C32.3092 36.0476 32.4173 36.5575 32.2644 36.8498C32.1316 37.1037 31.8877 37.2809 31.6052 37.3288C31.2799 37.3838 30.8284 37.1234 29.9253 36.6026L22.7323 32.4538C22.4653 32.2998 22.3318 32.2229 22.1899 32.1927C22.0644 32.1661 21.9346 32.1661 21.8091 32.1927C21.6672 32.2229 21.5337 32.2998 21.2667 32.4538L14.0736 36.6026C13.1706 37.1234 12.7191 37.3838 12.3938 37.3288C12.1113 37.2809 11.8674 37.1037 11.7345 36.8498C11.5817 36.5575 11.6898 36.0476 11.9061 35.0278L13.629 26.9047C13.693 26.6032 13.7249 26.4525 13.7098 26.3082C13.6963 26.1806 13.6562 26.0572 13.5921 25.946C13.5196 25.8204 13.4051 25.7172 13.1761 25.5109L7.00768 19.9519C6.23325 19.254 5.84604 18.9051 5.79791 18.5787C5.75609 18.2952 5.84926 18.0085 6.04972 17.8037C6.28048 17.568 6.79886 17.5133 7.83561 17.4038L16.0935 16.5323C16.4 16.4999 16.5532 16.4837 16.6857 16.4247C16.803 16.3725 16.9079 16.2962 16.9938 16.2009C17.0909 16.0931 17.1537 15.9523 17.2791 15.6708L20.6599 8.08646Z" stroke="#051128" stroke-width="2" stroke-linecap="round" stroke-linejoin="round"/>
</svg>
